<?xml version="1.0" encoding="utf-8"?>
<!-- Generator: Adobe Illustrator 25.0.0, SVG Export Plug-In . SVG Version: 6.00 Build 0)  -->
<svg version="1.1" id="Layer_1" xmlns="http://www.w3.org/2000/svg" xmlns:xlink="http://www.w3.org/1999/xlink" x="0px" y="0px"
	 viewBox="0 0 24 24" style="enable-background:new 0 0 24 24;" xml:space="preserve">
<style type="text/css">
	.st0{display:none;}
</style>
<path class="st0" d="M4,10.9h0.4v4H6v0.4H4V10.9z"/>
<path class="st0" d="M6,11h0.4l1.3,3.4L9.2,11h0.4l-1.8,4.4H7.8L6,11z"/>
<path class="st0" d="M11.6,15.3h-2v-0.4h1.6v-4h0.4L11.6,15.3z"/>
<path class="st0" d="M0,0"/>
<path class="st0" d="M20,16h-4.5l2.2-2.4c0.5-0.6,0.9-1.1,1.2-1.5l-1.3-1.4c-0.3,0.4-0.8,1-1.4,1.8L11.2,18h6.9L20,16z"/>
<g>
	<path d="M3.9,11.8l0.1-1.5L3.9,7.6h2.2L6.1,8.3H4.7l0,1.1h1.2L5.8,10H4.6l0,0.2l0,0.9h1.5l-0.1,0.6H3.9z"/>
	<path d="M7.5,7.1l-0.1,3.1l0.1,1.4l-0.8,0.1l0.1-1.5l-0.1-3L7.5,7.1z"/>
	<path d="M8.2,7.8c0-0.1,0.1-0.3,0.2-0.4s0.2-0.2,0.4-0.2c0.1,0,0.2,0,0.3,0.1c0.1,0.1,0.1,0.2,0.1,0.3S9,8,8.9,8.1S8.7,8.3,8.6,8.3
		c-0.1,0-0.2,0-0.3-0.1S8.2,8,8.2,7.8z M9,8.7l-0.1,1.5L9,11.6l-0.8,0.1l0.1-1.5L8.2,8.9L9,8.7z"/>
	<path d="M9.3,13.1c-0.2,0-0.3,0-0.5-0.1L9,12.3c0.1,0,0.3,0.1,0.4,0.1c0.1,0,0.2,0,0.3-0.1c0.1-0.1,0.1-0.2,0.1-0.5l0-1.5L9.7,8.9
		l0.8-0.2l-0.1,1.5l0.1,1.4c0,0.4-0.1,0.8-0.3,1.1C9.9,12.9,9.6,13.1,9.3,13.1z M9.6,7.8c0-0.1,0.1-0.3,0.2-0.4s0.2-0.2,0.4-0.2
		s0.2,0,0.3,0.1c0.1,0.1,0.1,0.2,0.1,0.3c0,0.1-0.1,0.3-0.1,0.4c-0.1,0.1-0.2,0.2-0.4,0.2c-0.1,0-0.2,0-0.3-0.1
		C9.7,8.1,9.6,8,9.6,7.8z"/>
	<path d="M11.2,11.5c-0.1-0.1-0.2-0.4-0.2-0.6s0.1-0.5,0.3-0.7c0.2-0.2,0.5-0.3,0.8-0.3h0.4V9.9c0-0.2,0-0.3-0.1-0.4
		c-0.1-0.1-0.2-0.1-0.5-0.1c-0.1,0-0.2,0-0.3,0.1c-0.1,0-0.3,0.1-0.4,0.2l-0.2-0.5c0.2-0.1,0.4-0.2,0.6-0.3c0.2-0.1,0.4-0.1,0.6-0.1
		c0.6,0,0.9,0.3,0.9,0.9v1.2c0,0.2,0.1,0.5,0.2,0.8l-0.6,0.3c-0.1-0.2-0.2-0.4-0.2-0.5c-0.2,0.3-0.5,0.5-0.8,0.5
		C11.5,11.8,11.3,11.7,11.2,11.5z M12,11.2c0.2,0,0.3-0.1,0.5-0.2v-0.4c-0.2,0-0.4-0.1-0.5-0.1c-0.3,0-0.4,0.1-0.4,0.3
		c0,0.1,0,0.2,0.1,0.3C11.8,11.1,11.9,11.2,12,11.2z"/>
	<path d="M15.6,9.7c0-0.1-0.2-0.1-0.3-0.1c-0.2,0-0.4,0.1-0.6,0.2v0.4l0.1,1.4L14,11.8l0.1-1.5l-0.1-3l0.8-0.1l-0.1,1.6v0.7
		c0.1-0.1,0.1-0.2,0.2-0.2C15,9.1,15.1,9,15.3,8.9c0.2-0.1,0.3-0.1,0.5-0.1c0.2,0,0.3,0.1,0.5,0.2s0.2,0.3,0.2,0.6l0,0.7l0.1,1.4
		l-0.8,0.1l0.1-1.5C15.7,10,15.7,9.8,15.6,9.7z"/>
	<path class = "level-2" d="M8.8,19c-0.4,0-0.8-0.2-1.1-0.6c-0.3-0.4-0.5-0.8-0.5-1.4c0-0.7,0.2-1.2,0.5-1.7s0.8-0.7,1.3-0.7c0.2,0,0.4,0,0.6,0.1
		c0.2,0,0.3,0.1,0.4,0.1l0.1,0.1l-0.4,0.8c-0.1-0.1-0.2-0.2-0.4-0.2c-0.2-0.1-0.3-0.1-0.5-0.1c-0.3,0-0.5,0.1-0.7,0.3
		c-0.2,0.2-0.2,0.6-0.2,1s0.1,0.8,0.3,1c0.2,0.3,0.4,0.4,0.7,0.4c0.2,0,0.4-0.1,0.5-0.2c0.2-0.1,0.3-0.3,0.3-0.5l0.5,0.3
		c-0.1,0.4-0.3,0.6-0.6,0.8S9.2,19,8.8,19z"/>
	<path class = "level-2" d="M11,16.4c0.3-0.4,0.6-0.5,1-0.5c0.4,0,0.7,0.1,0.9,0.4c0.2,0.2,0.3,0.6,0.3,1c0,0.5-0.1,1-0.4,1.3c-0.3,0.3-0.6,0.5-1,0.5
		c-0.3,0-0.6-0.1-0.8-0.4c-0.2-0.2-0.3-0.6-0.3-0.9C10.6,17.2,10.7,16.8,11,16.4z M12.4,17.5c0-0.6-0.2-0.9-0.6-0.9
		c-0.4,0-0.6,0.3-0.6,0.8c0,0.3,0.1,0.5,0.2,0.7c0.1,0.2,0.3,0.2,0.5,0.2c0.2,0,0.3-0.1,0.4-0.2C12.4,18,12.4,17.8,12.4,17.5z"/>
	<path class = "level-2" d="M15.2,15.9c0.3,0,0.5,0.1,0.7,0.3c0.2,0.2,0.3,0.5,0.3,0.9c0,0.5-0.1,1-0.4,1.3c-0.3,0.3-0.6,0.5-1.1,0.5
		c-0.2,0-0.5,0-1-0.1l0.1-1.4l-0.1-3l0.8-0.2l-0.1,1.5v0.6c0-0.1,0.1-0.1,0.2-0.2c0.1-0.1,0.2-0.2,0.3-0.2S15.1,15.9,15.2,15.9z
		 M15,16.7c-0.2,0-0.4,0.1-0.6,0.2v0.5l0,0.9c0.2,0,0.3,0,0.5,0c0.4,0,0.6-0.3,0.6-0.8S15.3,16.7,15,16.7z"/>
	<path class = "level-2" d="M18.2,15.9c0.3,0,0.5,0.1,0.7,0.3c0.2,0.2,0.3,0.5,0.3,0.9c0,0.5-0.1,1-0.4,1.3c-0.3,0.3-0.6,0.5-1.1,0.5
		c-0.2,0-0.5,0-1-0.1l0.1-1.4l-0.1-3l0.8-0.2l-0.1,1.5v0.6c0-0.1,0.1-0.1,0.2-0.2c0.1-0.1,0.2-0.2,0.3-0.2S18.1,15.9,18.2,15.9z
		 M18,16.7c-0.2,0-0.4,0.1-0.6,0.2v0.5l0,0.9c0.2,0,0.3,0,0.5,0c0.4,0,0.6-0.3,0.6-0.8S18.3,16.7,18,16.7z"/>
</g>
</svg>
